<svg width="768" height="352" viewBox="0 0 768 352" fill="none" xmlns="http://www.w3.org/2000/svg">
<path d="M-150 217.944C-38.1779 210.082 28.3288 117.862 126.063 76.3059C210.514 40.3976 277.71 67.494 279.05 161.289C279.856 217.684 263.034 269 222.659 310.053C104.205 430.498 41.7068 252.54 149.112 180.115C218.633 133.237 310.749 192.386 381.188 204.572C494.292 224.14 616.72 216.6 635.961 78.2413C643.869 21.3798 574.604 -9.68871 529.689 26.9524C429.507 108.68 448.122 279.988 595.141 244.249C706.787 217.108 781.316 103.233 862.935 29.4157C871.761 21.4331 888.508 1 901.468 1" stroke="#FFD600" stroke-linecap="round" stroke-linejoin="round"/>
</svg>
